<?xml version="1.0" encoding="UTF-8" standalone="no"?>
<svg width="598px" height="399px" viewBox="0 0 598 399" version="1.1" xmlns="http://www.w3.org/2000/svg" xmlns:xlink="http://www.w3.org/1999/xlink">
    <!-- Generator: Sketch 3.8.3 (29802) - http://www.bohemiancoding.com/sketch -->
    <title>Group</title>
    <desc>Created with Sketch.</desc>
    <defs></defs>
    <g id="Page-1" stroke="none" stroke-width="1" fill="none" fill-rule="evenodd">
        <g id="Group" fill="#FFFFFF">
            <path d="M415.007828,370.154599 C415.829746,369.567515 416.41683,369.215264 416.886497,368.863014 C420.643836,366.632094 422.052838,363.227006 421.700587,359 C420.878669,346.78865 420.174168,334.577299 419.234834,322.365949 C418.295499,308.510763 417.238748,294.655577 416.299413,280.800391 C415.360078,268.354207 414.53816,256.02544 413.716243,243.579256 C412.776908,231.133072 411.95499,218.804305 411.015656,206.358121 C410.076321,193.911937 409.254403,181.465753 408.432485,169.019569 C407.727984,159.156556 407.023483,149.410959 406.318982,139.547945 C405.497065,128.510763 404.792564,117.473581 403.970646,106.436399 C403.266145,96.5733855 402.561644,86.8277886 401.857143,76.964775 C401.152642,67.4540117 400.448141,57.9432485 399.74364,48.4324853 C399.039139,39.0391389 398.452055,29.5283757 397.747554,20.1350294 C397.630137,18.4911937 397.043053,17.0821918 395.399217,16.260274 C398.217221,15.7906067 400.682975,17.6692759 401.152642,20.7221135 C401.622309,23.7749511 401.739726,26.8277886 401.97456,29.9980431 C402.796477,40.3307241 403.618395,50.7808219 404.440313,61.1135029 C405.262231,71.446184 405.966732,81.6614481 406.78865,91.9941292 C407.610568,102.209393 408.315068,112.424658 409.136986,122.522505 C409.958904,133.09002 410.780822,143.657534 411.60274,154.225049 C412.424658,164.675147 413.246575,175.125245 414.068493,185.692759 C414.772994,194.851272 415.477495,204.127202 416.181996,213.285714 C416.886497,222.796477 417.590998,232.307241 418.295499,241.818004 C418.882583,250.037182 419.469667,258.138943 420.056751,266.358121 C420.761252,275.868885 421.465753,285.497065 422.170254,295.007828 C422.874755,304.518591 423.579256,314.146771 424.283757,323.657534 C424.988258,333.168297 425.692759,342.796477 426.39726,352.307241 C426.632094,355.594912 427.219178,358.882583 426.866928,362.287671 C426.514677,365.340509 425.105675,367.923679 422.639922,369.802348 C421.348337,370.741683 420.056751,371.21135 418.412916,370.741683 C417.356164,370.506849 416.41683,370.389432 415.007828,370.154599 L415.007828,370.154599 L415.007828,370.154599 Z" id="Shape"></path>
            <path d="M431.681018,372.855186 C432.502935,372.385519 432.972603,371.915851 433.559687,371.563601 C436.260274,369.802348 437.551859,367.336595 437.669276,364.166341 C437.786693,359.939335 437.317025,355.829746 436.964775,351.720157 C436.142857,341.152642 435.320939,330.702544 434.499022,320.135029 C433.677104,310.272016 432.972603,300.409002 432.150685,290.545988 C431.21135,279.626223 430.389432,268.823875 429.450098,257.90411 C428.510763,247.219178 427.688845,236.534247 426.749511,225.849315 C425.810176,215.164384 424.988258,204.479452 424.048924,193.911937 C423.109589,182.052838 422.052838,170.311155 421.113503,158.452055 C420.291585,148.941292 419.587084,139.430528 418.765166,129.802348 C417.825832,119.117417 416.886497,108.432485 416.064579,97.7475538 C415.242661,88.3542074 414.53816,78.9608611 413.716243,69.5675147 C412.894325,60.1741683 412.072407,50.6634051 411.367906,41.2700587 C411.250489,40.5655577 411.250489,39.8610568 411.250489,39.1565558 C411.133072,37.1604697 410.663405,35.3992172 408.549902,34.4598826 C411.60274,33.8727984 414.18591,35.8688845 414.53816,39.1565558 C415.125245,44.0880626 415.477495,49.0195695 415.947162,53.9510763 C416.886497,64.1663405 417.708415,74.2641879 418.64775,84.4794521 C419.469667,93.5205479 420.174168,102.561644 420.996086,111.485323 C421.818004,120.409002 422.639922,129.450098 423.344423,138.373777 C424.166341,147.53229 424.988258,156.808219 425.810176,165.966732 C426.749511,176.181996 427.571429,186.279843 428.510763,196.495108 C429.215264,204.362035 429.919765,212.228963 430.624266,220.213307 C431.446184,229.254403 432.268102,238.295499 432.972603,247.219178 C433.794521,256.495108 434.616438,265.771037 435.438356,274.92955 C436.260274,284.440313 437.082192,293.951076 437.90411,303.344423 C438.608611,311.798434 439.313112,320.135029 440.017613,328.589041 C440.83953,338.569472 441.661448,348.549902 442.483366,358.64775 C442.7182,361.700587 443.07045,364.870841 442.365949,367.923679 C442.013699,369.332681 441.544031,370.624266 440.604697,371.681018 C439.430528,373.09002 438.021526,374.146771 435.908023,373.44227 C434.616438,373.207436 433.324853,373.09002 431.681018,372.855186 L431.681018,372.855186 L431.681018,372.855186 Z" id="Shape"></path>
            <path d="M423.227006,49.6066536 C426.04501,49.6066536 427.806262,51.6027397 428.158513,54.7729941 C428.62818,59.4696673 429.097847,64.0489237 429.567515,68.7455969 C430.389432,77.0821918 431.21135,85.4187867 432.033268,93.8727984 C432.855186,102.209393 433.677104,110.545988 434.381605,119 C435.320939,128.158513 436.142857,137.434442 437.082192,146.592955 C438.021526,155.986301 438.843444,165.262231 439.782779,174.655577 C440.722114,184.048924 441.544031,193.324853 442.483366,202.7182 C443.305284,210.937378 444.009785,219.039139 444.831703,227.258317 C445.771037,236.651663 446.592955,246.04501 447.53229,255.438356 C448.471624,264.949119 449.293542,274.342466 450.232877,283.853229 C451.172211,294.068493 452.111546,304.166341 452.933464,314.381605 C453.637965,322.7182 454.459883,331.054795 455.2818,339.273973 C456.103718,347.727984 456.925636,356.064579 457.747554,364.518591 C457.982387,367.101761 457.982387,369.802348 457.16047,372.268102 C456.925636,372.855186 456.690802,373.559687 456.455969,374.029354 C455.399217,376.260274 454.694716,376.495108 452.228963,376.142857 C451.407045,376.02544 450.46771,375.908023 449.410959,375.67319 C453.755382,372.150685 453.637965,367.336595 453.168297,362.757339 C451.876712,347.1409 450.46771,331.407045 449.058708,315.790607 C447.53229,299.117417 445.888454,282.32681 444.362035,265.65362 C443.07045,251.446184 441.896282,237.238748 440.604697,223.031311 C439.195695,207.88454 437.90411,192.737769 436.495108,177.590998 C435.438356,165.614481 434.381605,153.637965 433.324853,141.661448 L429.802348,102.561644 C428.863014,91.6418787 427.806262,80.6046967 426.866928,69.6849315 C426.39726,64.8708415 425.927593,60.0567515 425.575342,55.2426614 C425.223092,53.1291585 424.636008,51.2504892 423.227006,49.6066536 L423.227006,49.6066536 L423.227006,49.6066536 Z" id="Shape"></path>
            <path d="M463.970646,377.90411 C463.970646,377.669276 463.970646,377.551859 464.088063,377.551859 C467.258317,374.968689 467.610568,371.446184 467.258317,367.688845 C465.966732,351.133072 464.205479,334.694716 462.679061,318.25636 C461.387476,304.401174 459.978474,290.663405 458.686888,276.808219 C457.277886,263.07045 455.868885,249.332681 454.577299,235.477495 C453.285714,222.679061 452.111546,209.763209 450.819961,196.964775 C449.410959,182.287671 447.88454,167.610568 446.358121,152.816047 C445.066536,140.017613 443.892368,127.219178 442.600783,114.420744 C441.426614,102.561644 440.252446,90.8199609 439.078278,78.9608611 C438.726027,75.3209393 438.491194,71.7984344 437.90411,68.1585127 C437.669276,66.7495108 437.199609,65.3405088 436.612524,64.0489237 C438.608611,63.9315068 440.252446,65.3405088 440.956947,67.6888454 C441.544031,69.6849315 441.544031,71.7984344 441.778865,73.7945205 C443.305284,88.5890411 444.831703,103.266145 446.240705,118.060665 C447.649706,131.563601 448.941292,145.183953 450.232877,158.686888 C451.524462,171.250489 452.816047,183.81409 454.107632,196.377691 C455.399217,208.941292 456.573386,221.504892 457.864971,234.068493 C459.273973,248.393346 460.800391,262.7182 462.209393,277.043053 C463.500978,289.606654 464.675147,302.287671 465.966732,314.851272 C467.1409,326.358121 468.315068,337.864971 469.489237,349.37182 C470.193738,356.299413 471.250489,363.109589 471.367906,370.154599 C471.485323,372.385519 471.015656,374.616438 469.72407,376.612524 C468.784736,378.021526 467.493151,378.726027 465.731898,378.25636 C465.262231,378.021526 464.55773,378.021526 463.970646,377.90411 L463.970646,377.90411 L463.970646,377.90411 Z" id="Shape"></path>
            <path d="M477.590998,379.900196 C481.348337,376.260274 480.878669,371.681018 480.409002,367.219178 C478.64775,349.72407 476.651663,332.34638 474.655577,314.851272 C473.011742,299.939335 471.250489,285.027397 469.606654,270.11546 C468.197652,256.964775 466.906067,243.931507 465.497065,230.780822 C463.853229,214.92955 462.209393,199.195695 460.565558,183.344423 C459.156556,169.37182 457.747554,155.399217 456.221135,141.309198 C454.812133,127.336595 453.285714,113.363992 451.876712,99.508806 C451.289628,93.9902153 450.702544,88.4716243 450.11546,82.9530333 C449.880626,80.9569472 449.410959,79.0782779 448.354207,77.3170254 C449.763209,77.3170254 450.46771,78.0215264 451.172211,78.9608611 C452.933464,81.1917808 452.933464,83.8923679 453.168297,86.4755382 C454.459883,98.6868885 455.751468,110.898239 457.043053,123.109589 C458.099804,133.207436 459.156556,143.305284 460.213307,153.520548 C461.270059,163.735812 462.444227,173.833659 463.500978,184.048924 C464.55773,194.146771 465.614481,204.244618 466.671233,214.225049 C467.727984,224.205479 468.784736,234.18591 469.958904,244.166341 C471.015656,254.264188 472.072407,264.362035 473.246575,274.577299 C474.303327,284.440313 475.360078,294.303327 476.41683,304.048924 C477.473581,314.029354 478.530333,324.127202 479.704501,334.107632 C480.761252,343.853229 481.935421,353.716243 482.992172,363.46184 C483.46184,367.571429 484.166341,371.798434 483.109589,375.908023 C482.992172,376.612524 482.757339,377.317025 482.522505,377.90411 C481.58317,380.48728 480.409002,381.074364 477.590998,379.900196 L477.590998,379.900196 L477.590998,379.900196 Z" id="Shape"></path>
            <path d="M489.684932,381.896282 C492.385519,378.843444 492.385519,375.320939 492.268102,371.681018 C491.563601,360.291585 489.919765,348.902153 488.62818,337.51272 C487.336595,326.005871 485.927593,314.616438 484.636008,303.109589 C483.227006,291.60274 481.818004,280.09589 480.526419,268.589041 C479.469667,258.960861 478.412916,249.332681 477.356164,239.587084 C476.299413,229.958904 475.125245,220.330724 474.068493,210.819961 C472.894325,200.369863 471.720157,189.919765 470.545988,179.469667 C469.489237,169.841487 468.315068,160.213307 467.258317,150.702544 C466.201566,141.074364 465.144814,131.446184 463.970646,121.700587 C462.913894,112.659491 461.97456,103.735812 460.917808,94.6947162 C460.682975,92.9334638 460.213307,91.2896282 459.273973,89.5283757 C460.565558,89.4109589 461.152642,90.1154599 461.857143,90.8199609 C463.618395,92.816047 463.735812,95.3992172 463.970646,97.8649706 C465.731898,113.363992 467.493151,128.863014 469.37182,144.362035 C471.133072,159.391389 472.776908,174.420744 474.53816,189.332681 C475.947162,202.013699 477.473581,214.577299 479,227.258317 C480.409002,239 481.700587,250.8591 483.109589,262.600783 C484.753425,276.925636 486.39726,291.250489 488.041096,305.457926 C489.450098,317.434442 490.741683,329.410959 492.150685,341.387476 C493.207436,350.780822 494.381605,360.174168 495.438356,369.567515 C495.790607,372.737769 495.67319,375.908023 494.733855,379.078278 C493.559687,382.248532 492.855186,382.600783 489.684932,381.896282 L489.684932,381.896282 L489.684932,381.896282 Z" id="Shape"></path>
            <path d="M500.48728,383.540117 C502.600783,381.661448 502.835616,379.313112 502.953033,376.847358 C502.953033,370.624266 502.013699,364.636008 501.309198,358.530333 C500.135029,348.667319 498.960861,338.921722 497.786693,329.058708 C496.495108,318.843444 495.203523,308.62818 493.911937,298.530333 C492.737769,288.902153 491.563601,279.391389 490.389432,269.763209 C489.215264,259.900196 488.041096,250.037182 486.866928,240.174168 C485.810176,231.015656 484.753425,221.857143 483.696673,212.816047 C482.522505,202.953033 481.348337,193.207436 480.174168,183.344423 C479.117417,174.18591 478.060665,165.027397 476.886497,155.868885 C475.829746,146.827789 474.772994,137.669276 473.598826,128.62818 C472.776908,121.348337 471.837573,113.951076 471.015656,106.671233 C470.780822,104.90998 470.311155,103.148728 469.37182,101.504892 C470.780822,101.504892 471.485323,102.209393 472.189824,103.148728 C473.481409,104.90998 473.833659,106.906067 474.068493,109.019569 C475.594912,121.935421 477.121331,134.851272 478.64775,147.767123 C480.056751,159.74364 481.58317,171.720157 482.992172,183.696673 C484.518591,196.377691 486.04501,209.058708 487.571429,221.739726 C488.980431,233.716243 490.506849,245.575342 491.915851,257.434442 C493.09002,267.062622 494.264188,276.690802 495.438356,286.318982 C496.729941,297.003914 498.021526,307.688845 499.313112,318.491194 C500.604697,329.176125 501.896282,339.861057 503.07045,350.545988 C504.009785,358.882583 504.949119,367.101761 505.888454,375.438356 C506.123288,377.434442 506.123288,379.430528 505.536204,381.426614 C504.831703,383.892368 503.540117,384.596869 500.48728,383.540117 L500.48728,383.540117 L500.48728,383.540117 Z" id="Shape"></path>
            <path d="M479.234834,112.072407 C481.818004,113.011742 482.757339,115.242661 482.992172,117.590998 C484.401174,128.393346 485.692759,139.195695 486.984344,149.998043 C488.510763,162.32681 490.154599,174.772994 491.681018,187.101761 C493.09002,197.90411 494.381605,208.823875 495.790607,219.626223 C497.082192,229.606654 498.373777,239.587084 499.547945,249.450098 C500.604697,258.138943 501.661448,266.827789 502.835616,275.399217 C504.009785,284.322896 505.183953,293.246575 506.358121,302.170254 C507.53229,311.328767 508.706458,320.48728 509.880626,329.645793 C511.054795,338.569472 512.228963,347.493151 513.403131,356.41683 C514.342466,363.579256 515.399217,370.624266 515.868885,377.786693 C515.986301,379.782779 515.751468,381.778865 514.92955,383.657534 C513.990215,385.65362 513.168297,385.888454 510.937378,384.949119 C514.107632,380.604697 512.933464,375.790607 512.34638,371.093933 C510.937378,359.469667 509.410959,347.845401 507.88454,336.221135 C506.475538,325.536204 505.066536,314.851272 503.774951,304.166341 C502.365949,293.363992 501.074364,282.444227 499.782779,271.641879 C498.491194,261.309198 497.199609,250.8591 495.908023,240.526419 C494.733855,230.898239 493.559687,221.387476 492.385519,211.759295 C491.093933,201.426614 489.802348,190.976517 488.510763,180.643836 C487.454012,171.837573 486.39726,162.913894 485.340509,154.107632 C484.166341,144.596869 482.992172,135.086106 481.818004,125.575342 C481.465753,122.992172 481.113503,120.409002 480.878669,117.943249 C480.643836,115.947162 480.291585,113.951076 479.234834,112.072407 L479.234834,112.072407 L479.234834,112.072407 Z" id="Shape"></path>
            <path d="M488.393346,122.287671 C489.802348,122.522505 490.389432,123.579256 490.976517,124.518591 C492.268102,126.866928 492.385519,129.567515 492.737769,132.150685 C494.264188,143.07045 495.67319,154.107632 497.082192,165.027397 C498.373777,174.772994 499.665362,184.518591 500.956947,194.146771 C502.131115,203.07045 503.305284,211.876712 504.479452,220.800391 C505.771037,230.545988 507.062622,240.174168 508.354207,249.919765 C509.763209,260.369863 511.054795,270.819961 512.463796,281.270059 C513.872798,291.60274 515.164384,302.052838 516.573386,312.385519 C517.864971,321.896282 519.039139,331.407045 520.330724,340.917808 C521.504892,349.841487 522.679061,358.765166 523.853229,367.688845 C524.322896,371.681018 525.027397,375.67319 525.144814,379.665362 C525.262231,381.191781 525.144814,382.7182 524.792564,384.127202 C524.205479,386.827789 523.148728,387.297456 520.330724,386.358121 C523.148728,383.305284 522.32681,379.782779 521.97456,376.260274 C519.74364,358.530333 517.395303,340.800391 515.046967,323.07045 C512.69863,305.340509 510.46771,287.493151 508.236791,269.763209 C506.358121,255.555773 504.479452,241.348337 502.7182,227.023483 C500.956947,213.403131 499.313112,199.900196 497.551859,186.279843 C495.67319,171.250489 493.677104,156.221135 491.798434,141.191781 C491.093933,136.142857 490.624266,131.093933 489.802348,126.04501 C489.450098,124.988258 488.980431,123.81409 488.393346,122.287671 L488.393346,122.287671 L488.393346,122.287671 Z" id="Shape"></path>
            <path d="M496.729941,132.150685 C497.90411,132.268102 498.373777,132.972603 498.843444,133.677104 C500.252446,135.67319 500.48728,137.90411 500.722114,140.252446 C502.835616,155.046967 504.831703,169.841487 506.945205,184.636008 C509.176125,200.48728 511.289628,216.455969 513.520548,232.307241 C515.634051,247.454012 517.864971,262.7182 519.861057,277.864971 C521.387476,289.136986 522.796477,300.526419 524.205479,311.798434 C525.614481,323.187867 527.1409,334.694716 528.549902,346.084149 C529.958904,357.356164 531.367906,368.62818 532.776908,379.900196 C533.011742,381.778865 533.011742,383.657534 532.894325,385.536204 C532.542074,388.236791 531.720157,388.823875 529.019569,388.119374 C531.720157,385.418787 530.663405,382.131115 530.311155,378.960861 C528.432485,363.696673 526.436399,348.549902 524.440313,333.285714 C521.97456,314.616438 519.626223,295.947162 517.16047,277.395303 C514.694716,259.078278 512.111546,240.761252 509.645793,222.444227 C507.767123,208.236791 505.771037,193.911937 503.892368,179.587084 C501.896282,165.262231 500.017613,150.819961 498.021526,136.495108 C497.90411,135.086106 497.434442,133.677104 496.729941,132.150685 L496.729941,132.150685 L496.729941,132.150685 Z" id="Shape"></path>
            <path d="M504.714286,140.83953 C505.65362,140.83953 506.123288,141.309198 506.592955,141.896282 C507.767123,143.305284 508.236791,145.066536 508.471624,146.827789 C509.998043,157.747554 511.524462,168.549902 513.050881,179.469667 C514.812133,191.798434 516.573386,204.127202 518.334638,216.573386 C520.09589,228.902153 521.739726,241.23092 523.500978,253.44227 C525.144814,265.183953 526.78865,276.925636 528.432485,288.667319 C529.958904,299.939335 531.485323,311.21135 533.011742,322.483366 C534.53816,333.872798 536.181996,345.144814 537.708415,356.534247 C538.882583,365.575342 540.526419,374.616438 541.113503,383.774951 C541.23092,384.831703 541.23092,385.888454 540.996086,386.945205 C540.409002,389.645793 539.939335,389.998043 537.003914,389.410959 C540.056751,386.123288 538.64775,382.365949 538.178082,378.843444 C536.651663,366.749511 534.890411,354.655577 533.246575,342.561644 C531.60274,330.819961 529.958904,319.195695 528.315068,307.454012 C526.436399,293.598826 524.440313,279.626223 522.561644,265.771037 C520.682975,251.798434 518.686888,237.825832 516.808219,223.853229 C515.046967,211.172211 513.285714,198.491194 511.641879,185.810176 C509.998043,173.833659 508.354207,161.857143 506.710372,149.880626 C506.240705,146.827789 506.005871,143.774951 504.714286,140.83953 L504.714286,140.83953 L504.714286,140.83953 Z" id="Shape"></path>
            <path d="M544.988258,390.585127 C547.336595,387.649706 546.279843,384.362035 545.927593,381.309198 C544.283757,368.980431 542.405088,356.651663 540.643836,344.322896 C538.64775,330.350294 536.534247,316.495108 534.53816,302.522505 C532.542074,288.432485 530.545988,274.342466 528.549902,260.252446 C526.671233,246.749511 524.675147,233.363992 522.679061,219.861057 C520.800391,206.240705 518.921722,192.620352 516.925636,179 C515.634051,170.193738 514.577299,161.387476 513.050881,152.581213 C512.816047,151.524462 512.463796,150.46771 512.111546,149.293542 C513.168297,149.410959 513.755382,150.11546 514.225049,150.819961 C515.516634,152.816047 515.868885,155.164384 516.103718,157.51272 C517.864971,169.489237 519.626223,181.58317 521.387476,193.559687 C523.266145,206.123288 525.027397,218.569472 526.906067,231.133072 C528.667319,242.992172 530.428571,254.733855 532.072407,266.592955 C533.598826,277.277886 535.125245,288.080235 536.651663,298.765166 C538.060665,308.980431 539.587084,319.078278 540.996086,329.293542 C542.405088,339.508806 543.931507,349.72407 545.340509,359.939335 C546.39726,367.688845 547.571429,375.555773 548.62818,383.305284 C548.863014,384.949119 548.980431,386.710372 548.745597,388.354207 C548.393346,390.937378 547.571429,391.407045 544.988258,390.585127 L544.988258,390.585127 L544.988258,390.585127 Z" id="Shape"></path>
            <path d="M558.608611,392.816047 C560.252446,390.702544 559.782779,388.354207 559.430528,386.123288 C557.199609,370.741683 554.968689,355.360078 552.620352,340.09589 C550.741683,327.297456 548.745597,314.499022 546.866928,301.700587 C544.636008,287.1409 542.522505,272.463796 540.291585,257.90411 C537.708415,240.761252 535.125245,223.618395 532.542074,206.475538 C530.663405,193.794521 528.784736,181.113503 526.906067,168.549902 C526.671233,167.258317 526.201566,165.966732 525.731898,164.55773 C526.78865,164.675147 527.258317,165.262231 527.727984,165.966732 C529.019569,167.845401 529.37182,169.958904 529.72407,172.072407 C531.720157,185.105675 533.716243,198.021526 535.594912,211.054795 C537.590998,224.088063 539.35225,237.121331 541.348337,250.154599 C543.81409,266.827789 546.279843,283.500978 548.863014,300.056751 C551.798434,318.843444 554.733855,337.630137 557.669276,356.299413 C559.078278,365.575342 560.604697,374.968689 562.013699,384.244618 C562.248532,386.005871 562.483366,387.767123 562.600783,389.528376 C562.600783,392.463796 561.661448,393.285714 558.608611,392.816047 L558.608611,392.816047 L558.608611,392.816047 Z" id="Shape"></path>
            <path d="M519.156556,157.043053 C520.330724,157.16047 520.800391,157.982387 521.387476,158.686888 C522.913894,161.035225 523.031311,163.618395 523.383562,166.201566 C525.497065,180.409002 527.493151,194.733855 529.606654,208.941292 C531.485323,222.32681 533.363992,235.712329 535.360078,249.215264 C537.590998,264.479452 539.821918,279.74364 542.052838,295.007828 C544.283757,310.741683 546.632094,326.358121 548.980431,342.091977 C550.8591,355.242661 552.855186,368.393346 554.733855,381.426614 C555.086106,383.774951 555.438356,386.123288 555.320939,388.471624 C555.203523,391.524462 554.499022,392.111546 551.328767,391.759295 C552.385519,390.11546 552.972603,388.471624 552.737769,386.592955 C552.502935,384.714286 552.268102,382.835616 552.033268,380.956947 C550.272016,368.393346 548.62818,355.829746 546.866928,343.383562 C545.223092,331.876712 543.579256,320.252446 541.935421,308.745597 C540.291585,297.473581 538.64775,286.084149 537.003914,274.812133 C535.242661,262.953033 533.481409,251.093933 531.837573,239.234834 C530.193738,227.962818 528.549902,216.690802 526.906067,205.418787 C525.379648,194.733855 523.853229,184.048924 522.209393,173.363992 C521.622309,169.37182 521.035225,165.262231 520.448141,161.270059 C520.213307,159.74364 519.626223,158.452055 519.156556,157.043053 L519.156556,157.043053 L519.156556,157.043053 Z" id="Shape"></path>
            <path d="M532.072407,171.485323 C533.481409,171.95499 533.833659,173.129159 534.420744,174.18591 C535.594912,176.651663 535.712329,179.234834 536.064579,181.818004 C537.825832,193.324853 539.587084,204.831703 541.348337,216.338552 C542.874755,226.671233 544.401174,236.886497 545.927593,247.219178 C547.571429,258.138943 549.215264,269.058708 550.8591,279.978474 C552.855186,292.894325 554.851272,305.810176 556.847358,318.726027 C558.960861,332.111546 561.074364,345.379648 563.187867,358.765166 C564.596869,368.158513 566.240705,377.551859 567.414873,386.945205 C567.649706,388.354207 567.53229,389.880626 567.53229,391.289628 C567.414873,393.755382 566.827789,394.225049 564.362035,393.637965 C566.240705,389.410959 564.831703,385.066536 564.244618,380.83953 C562.835616,371.093933 561.309198,361.465753 559.900196,351.720157 C558.138943,340.565558 556.377691,329.410959 554.733855,318.25636 C552.855186,306.514677 550.976517,294.772994 549.215264,282.913894 C547.219178,270.11546 545.340509,257.199609 543.46184,244.401174 C541.465753,231.015656 539.469667,217.630137 537.473581,204.244618 C535.947162,194.499022 534.53816,184.636008 533.011742,174.890411 C532.894325,173.833659 532.424658,172.776908 532.072407,171.485323 L532.072407,171.485323 L532.072407,171.485323 Z" id="Shape"></path>
            <path d="M570.46771,394.577299 C572.111546,391.407045 571.407045,388.236791 570.937378,384.949119 C567.53229,363.696673 564.244618,342.444227 560.83953,321.191781 C558.491194,306.514677 556.02544,291.720157 553.677104,277.043053 C551.915851,265.888454 550.272016,254.616438 548.510763,243.46184 C546.749511,232.424658 545.105675,221.387476 543.344423,210.350294 C541.935421,200.956947 540.409002,191.681018 539,182.287671 C538.765166,180.761252 538.295499,179.35225 537.708415,177.708415 C539,178.295499 539.587084,179.234834 540.056751,180.291585 C541.113503,182.522505 541.348337,184.988258 541.700587,187.336595 C543.579256,198.960861 545.340509,210.585127 547.219178,222.209393 C549.097847,234.068493 550.8591,245.810176 552.737769,257.669276 C554.851272,271.289628 556.964775,284.792564 559.195695,298.412916 C561.778865,314.146771 564.362035,329.763209 566.945205,345.497065 C568.823875,357.238748 570.819961,368.980431 572.69863,380.722114 C573.168297,383.657534 573.637965,386.592955 573.872798,389.645793 C573.990215,390.819961 573.872798,391.876712 573.637965,393.050881 C573.168297,395.046967 572.581213,395.399217 570.46771,394.577299 L570.46771,394.577299 L570.46771,394.577299 Z" id="Shape"></path>
            <path d="M544.048924,184.870841 C546.04501,186.162427 546.749511,188.27593 547.101761,190.389432 C549.450098,204.949119 551.681018,219.508806 553.911937,234.18591 C557.199609,255.203523 560.252446,276.221135 563.657534,297.121331 C566.475538,314.264188 569.293542,331.407045 572.111546,348.432485 C574.107632,360.526419 576.103718,372.620352 577.982387,384.831703 C578.334638,387.297456 578.804305,389.763209 578.686888,392.228963 C578.686888,392.69863 578.686888,393.168297 578.569472,393.637965 C578.099804,395.868885 577.864971,396.103718 575.399217,395.399217 C577.277886,391.289628 575.986301,387.062622 575.399217,382.953033 C573.285714,368.980431 571.054795,355.125245 568.823875,341.152642 C566.592955,326.945205 564.127202,312.737769 561.896282,298.530333 C559.782779,285.614481 557.90411,272.69863 555.908023,259.782779 C554.029354,247.336595 552.033268,234.890411 550.154599,222.444227 C548.745597,213.050881 547.336595,203.540117 545.810176,194.029354 C545.340509,191.21135 545.223092,188.27593 544.048924,185.457926 C543.81409,185.223092 543.696673,184.988258 544.048924,184.870841 L544.048924,184.870841 L544.048924,184.870841 L544.048924,184.870841 Z" id="Shape"></path>
            <path d="M581.152642,396.221135 C582.561644,393.520548 581.857143,390.937378 581.387476,388.236791 C579.508806,376.612524 577.747554,364.870841 575.868885,353.246575 C573.520548,338.569472 571.054795,323.774951 568.589041,309.097847 C566.240705,294.53816 563.774951,279.978474 561.426614,265.418787 C559.313112,252.502935 557.199609,239.587084 555.086106,226.671233 C553.44227,216.455969 551.798434,206.358121 550.154599,196.142857 C549.802348,194.264188 549.450098,192.502935 548.62818,190.624266 C549.919765,190.976517 550.389432,191.798434 550.741683,192.737769 C552.268102,195.438356 552.385519,198.608611 552.972603,201.544031 C555.203523,215.046967 557.434442,228.667319 559.665362,242.170254 C561.896282,255.67319 564.009785,269.176125 566.240705,282.679061 C568.471624,295.947162 570.702544,309.215264 572.816047,322.483366 C574.92955,335.2818 577.043053,348.080235 579.156556,360.878669 C580.800391,370.976517 582.444227,381.074364 584.088063,391.172211 C584.205479,392.111546 584.322896,393.168297 584.322896,394.107632 C584.205479,396.573386 583.618395,397.043053 581.152642,396.221135 L581.152642,396.221135 L581.152642,396.221135 Z" id="Shape"></path>
            <path d="M554.381605,196.847358 C555.438356,197.082192 555.790607,197.90411 556.142857,198.726027 C557.551859,201.309198 557.786693,204.127202 558.25636,206.945205 C560.369863,219.508806 562.365949,231.95499 564.362035,244.518591 C566.710372,258.726027 568.941292,273.050881 571.289628,287.258317 C573.285714,299.234834 575.2818,311.328767 577.277886,323.305284 C579.391389,335.868885 581.504892,348.432485 583.618395,360.996086 C585.262231,370.976517 586.906067,380.956947 588.549902,390.937378 C588.784736,392.34638 589.019569,393.755382 588.902153,395.164384 C588.667319,397.277886 588.080235,397.630137 585.849315,396.925636 C587.258317,393.990215 586.201566,390.937378 585.731898,388.001957 C583.031311,371.328767 580.330724,354.655577 577.630137,337.982387 C574.92955,321.309198 571.994129,304.636008 569.293542,287.962818 C566.827789,273.285714 564.479452,258.491194 562.131115,243.81409 C560.017613,230.663405 557.90411,217.395303 555.790607,204.244618 C555.555773,201.778865 554.968689,199.313112 554.381605,196.847358 L554.381605,196.847358 L554.381605,196.847358 L554.381605,196.847358 Z" id="Shape"></path>
            <path d="M590.311155,397.630137 C591.250489,395.751468 591.015656,393.755382 590.780822,391.759295 C589.37182,383.187867 587.962818,374.616438 586.553816,366.04501 C584.55773,353.716243 582.444227,341.504892 580.448141,329.176125 C578.569472,317.669276 576.690802,306.279843 574.694716,294.772994 C572.69863,282.796477 570.585127,270.702544 568.589041,258.726027 C566.592955,246.632094 564.596869,234.53816 562.600783,222.444227 C561.661448,216.690802 560.722114,210.937378 559.782779,205.30137 C559.547945,204.127202 559.078278,203.07045 558.726027,201.896282 C559.547945,201.896282 559.900196,202.483366 560.252446,202.953033 C562.013699,205.30137 562.131115,208.119374 562.600783,210.819961 C564.949119,224.440313 567.297456,238.178082 569.528376,251.798434 C571.641879,264.362035 573.755382,276.925636 575.868885,289.489237 C577.982387,302.052838 580.09589,314.616438 582.209393,327.180039 C584.322896,339.74364 586.436399,352.307241 588.549902,364.870841 C590.076321,374.264188 591.60274,383.540117 593.129159,392.933464 C593.246575,393.872798 593.363992,394.92955 593.246575,395.868885 C593.246575,398.099804 592.542074,398.569472 590.311155,397.630137 L590.311155,397.630137 L590.311155,397.630137 Z" id="Shape"></path>
            <path d="M594.655577,398.452055 C595.594912,396.690802 595.594912,394.92955 595.242661,393.168297 C593.011742,379.782779 590.780822,366.39726 588.549902,353.129159 C586.671233,341.739726 584.792564,330.232877 582.796477,318.843444 C580.565558,305.692759 578.217221,292.542074 575.986301,279.391389 C573.637965,266.123288 571.407045,252.855186 569.058708,239.587084 C567.297456,229.72407 565.65362,219.861057 563.892368,210.11546 C563.657534,209.058708 563.305284,208.119374 562.835616,206.945205 C563.892368,207.062622 564.244618,207.767123 564.596869,208.354207 C566.005871,210.46771 566.358121,212.933464 566.710372,215.399217 C569.528376,231.250489 572.34638,247.101761 575.046967,262.835616 C577.747554,278.217221 580.448141,293.598826 583.031311,308.980431 C585.379648,322.835616 587.845401,336.808219 590.193738,350.663405 C592.659491,365.340509 595.125245,380.017613 597.590998,394.577299 C597.708415,395.046967 597.708415,395.516634 597.708415,395.986301 C597.825832,398.686888 597.356164,399.039139 594.655577,398.452055 L594.655577,398.452055 L594.655577,398.452055 Z" id="Shape"></path>
            <path d="M72.1506849,181.818004 C70.8590998,182.405088 69.6849315,182.992172 68.3933464,183.344423 C65.4579256,184.048924 64.0489237,185.810176 63.109589,188.745597 C57.8258317,205.418787 52.3072407,221.97456 46.7886497,238.530333 C45.2622309,243.109589 43.9706458,247.806262 41.8571429,252.150685 C41.035225,253.911937 39.8610568,255.203523 37.9823875,256.02544 C36.221135,256.729941 34.8121331,256.02544 33.4031311,255.086106 C31.8767123,258.726027 30.9373777,262.483366 29.6457926,266.005871 C28.9412916,268.119374 29.2935421,268.823875 31.5244618,268.941292 C32.111546,268.941292 32.6986301,268.941292 33.2857143,268.823875 C37.7475538,268.001957 41.035225,265.536204 43.5009785,262.013699 C48.3150685,255.320939 51.1330724,247.688845 53.5988258,239.939335 C59.9393346,220.682975 66.0450098,201.309198 72.1506849,181.818004 L72.1506849,181.818004 L72.1506849,181.818004 Z M59.704501,244.283757 C59.704501,245.575342 59.5870841,246.866928 59.704501,248.27593 C59.8219178,249.450098 60.0567515,250.624266 60.409002,251.915851 C61.5831703,256.612524 64.7534247,259.078278 69.2152642,258.608611 C70.6242661,258.491194 72.0332681,258.138943 73.4422701,257.669276 C78.6086106,255.67319 82.4833659,252.033268 86.0058708,247.923679 C91.8767123,240.878669 96.221135,232.894325 99.391389,224.322896 C103.266145,213.990215 106.553816,203.422701 107.845401,192.385519 C108.432485,187.806262 108.549902,183.344423 107.1409,178.882583 C105.614481,173.716243 102.209393,171.720157 96.925636,173.011742 C94.3424658,173.598826 91.9941292,174.772994 89.8806262,176.299413 C83.4227006,180.761252 78.8434442,186.866928 74.851272,193.559687 C68.9804305,203.540117 65.1056751,214.459883 62.2876712,225.614481 C60.8786693,231.60274 59.5870841,237.825832 59.704501,244.283757 L59.704501,244.283757 L59.704501,244.283757 Z M140.83953,240.174168 C140.722114,239.469667 140.722114,239 140.604697,238.530333 C139.782779,232.659491 138.960861,226.906067 138.138943,221.035225 C137.317025,215.046967 136.612524,209.176125 135.790607,203.187867 C135.67319,202.365949 135.790607,201.778865 136.377691,201.191781 C140.722114,196.964775 143.892368,191.915851 146.827789,186.749511 C149.763209,181.700587 151.407045,176.064579 152.69863,170.428571 C153.520548,166.671233 154.459883,162.913894 153.990215,158.921722 C153.403131,154.342466 149.763209,150.350294 144.244618,153.050881 C142.013699,154.107632 139.665362,155.046967 137.317025,155.868885 C132.033268,157.982387 126.749511,160.09589 121.58317,162.209393 C120.878669,162.444227 120.174168,162.679061 119.939335,163.735812 C118.64775,169.72407 117.238748,175.594912 115.829746,181.58317 C114.068493,189.450098 111.95499,197.082192 110.193738,204.949119 C107.845401,214.92955 105.262231,224.90998 102.796477,234.772994 C101.622309,239.704501 100.330724,244.636008 99.156556,249.450098 C99.039139,250.037182 98.5694716,250.741683 98.9217221,251.563601 C101.97456,250.506849 105.027397,249.802348 108.080235,248.980431 C109.254403,248.62818 109.841487,248.041096 110.076321,246.866928 C112.776908,235.947162 115.594912,225.027397 118.412916,214.107632 C118.530333,213.637965 118.530333,213.168297 119.117417,212.933464 C120.409002,212.463796 121.700587,211.994129 123.227006,211.759295 C123.696673,222.679061 124.048924,233.598826 124.518591,244.518591 C130.154599,243.227006 135.438356,241.700587 140.83953,240.174168 L140.83953,240.174168 L140.83953,240.174168 Z M281.739726,203.187867 C282.091977,203.07045 282.32681,203.07045 282.561644,203.07045 C294.420744,199.547945 306.39726,196.142857 318.25636,192.620352 C326.240705,190.272016 334.107632,187.923679 342.091977,185.575342 C343.031311,185.340509 343.500978,184.870841 343.618395,183.81409 C344.205479,179.469667 344.90998,175.242661 345.614481,170.898239 C345.966732,168.784736 346.436399,166.671233 346.553816,164.322896 C333.403131,168.549902 320.369863,172.659491 307.219178,176.886497 C312.385519,144.596869 318.726027,112.894325 324.009785,80.9569472 C323.774951,80.9569472 323.774951,80.8395303 323.774951,80.9569472 C316.964775,84.0097847 310.154599,86.9452055 303.344423,89.9980431 C302.639922,90.3502935 302.405088,90.8199609 302.287671,91.6418787 C301.935421,93.8727984 301.58317,96.1037182 301.113503,98.334638 C300.409002,102.209393 299.469667,106.084149 298.765166,110.076321 C297.825832,115.007828 297.003914,120.056751 296.064579,124.988258 C295.007828,130.506849 294.068493,135.908023 293.011742,141.426614 C292.189824,145.888454 291.367906,150.46771 290.545988,154.92955 C289.37182,161.152642 288.197652,167.258317 287.023483,173.481409 C285.849315,179.469667 284.792564,185.575342 283.735812,191.563601 C283.148728,195.320939 282.444227,199.195695 281.739726,203.187867 L281.739726,203.187867 L281.739726,203.187867 Z M180.174168,230.545988 C184.636008,229.37182 188.980431,228.315068 193.207436,227.1409 C193.794521,227.023483 194.029354,226.436399 194.146771,225.849315 C195.086106,221.857143 195.908023,217.747554 196.847358,213.755382 C199.430528,201.896282 202.131115,190.037182 204.714286,178.295499 C206.358121,170.780822 208.119374,163.266145 209.880626,155.751468 C211.407045,148.823875 212.933464,141.896282 214.577299,134.968689 C215.399217,131.328767 216.221135,127.806262 217.043053,124.048924 C213.050881,125.692759 209.058708,127.219178 205.183953,128.745597 C204.596869,128.980431 204.479452,129.332681 204.362035,129.919765 C202.953033,136.377691 201.544031,142.7182 200.017613,149.058708 C197.434442,160.213307 194.968689,171.367906 192.385519,182.405088 C191.915851,184.401174 191.446184,186.39726 190.976517,188.393346 L190.624266,188.393346 C186.866928,171.95499 183.227006,155.516634 179.469667,138.960861 C175.477495,140.604697 171.720157,142.131115 167.845401,143.657534 C167.1409,143.892368 167.023483,144.362035 166.906067,144.949119 C165.966732,148.354207 165.144814,151.876712 164.322896,155.2818 C161.739726,165.849315 159.508806,176.41683 157.043053,186.984344 C154.92955,195.908023 152.816047,204.831703 150.702544,213.755382 C149.176125,220.330724 147.649706,226.906067 146.123288,233.481409 C145.65362,235.360078 145.183953,237.238748 144.714286,239.35225 C148.236791,238.412916 151.407045,237.590998 154.694716,236.76908 C155.399217,236.651663 155.634051,236.299413 155.751468,235.594912 C158.099804,225.379648 160.448141,215.164384 162.796477,205.066536 C164.90998,196.02544 167.023483,187.101761 169.019569,178.060665 C173.481409,195.555773 176.651663,213.050881 180.174168,230.545988 L180.174168,230.545988 L180.174168,230.545988 Z M266.358121,104.205479 C265.888454,103.970646 265.536204,104.205479 265.30137,104.322896 C260.252446,106.318982 255.203523,108.315068 250.154599,110.193738 C249.215264,110.545988 248.62818,111.133072 248.27593,112.072407 C246.39726,116.534247 244.518591,120.996086 242.522505,125.457926 C237.356164,137.551859 232.189824,149.645793 227.023483,161.739726 C222.32681,172.542074 217.864971,183.344423 213.168297,194.029354 C208.706458,204.244618 204.479452,214.577299 200.135029,224.90998 C200.017613,225.262231 199.665362,225.497065 200.017613,225.966732 C203.657534,224.90998 207.297456,223.970646 210.937378,222.913894 C211.641879,222.679061 211.876712,222.209393 212.111546,221.622309 C213.872798,217.51272 215.634051,213.520548 217.395303,209.410959 C219.508806,204.362035 221.622309,199.430528 223.735812,194.381605 C224.205479,193.09002 225.027397,192.385519 226.318982,192.033268 C234.420744,189.567515 242.639922,187.101761 250.741683,184.518591 C251.21135,184.401174 251.563601,184.166341 252.150685,184.518591 C252.737769,193.207436 253.207436,202.013699 253.794521,210.937378 C260.604697,208.941292 267.414873,207.062622 274.225049,205.066536 C271.407045,171.367906 268.823875,137.786693 266.358121,104.205479 L266.358121,104.205479 L266.358121,104.205479 Z M342.209393,194.733855 C341.97456,194.616438 341.857143,194.616438 341.857143,194.616438 C332.933464,197.082192 323.892368,199.547945 314.968689,202.013699 C314.381605,202.131115 314.146771,202.483366 314.029354,203.07045 C311.446184,211.524462 308.745597,219.978474 306.04501,228.432485 C298.765166,252.033268 291.485323,275.634051 284.088063,299.35225 C283.500978,301.348337 283.500978,301.348337 281.035225,301.23092 C278.686888,271.759295 276.455969,242.405088 274.107632,212.816047 C270.232877,213.872798 266.475538,214.694716 262.835616,215.751468 C254.851272,217.982387 246.866928,219.978474 238.882583,222.091977 C226.671233,225.262231 214.577299,228.784736 202.365949,231.837573 C195.086106,233.716243 187.923679,235.712329 180.643836,237.708415 C173.598826,239.587084 166.553816,241.348337 159.391389,243.109589 C158.569472,243.344423 158.217221,243.696673 158.099804,244.518591 C157.16047,248.745597 156.103718,252.972603 155.164384,257.199609 C151.759295,271.759295 148.471624,286.201566 145.066536,300.761252 C142.7182,310.8591 140.369863,321.074364 138.021526,331.172211 C137.786693,332.111546 137.317025,332.34638 136.495108,332.463796 C129.684932,333.285714 122.874755,334.107632 116.064579,335.046967 C114.303327,335.2818 112.424658,335.516634 110.545988,335.751468 C110.898239,334.225049 111.250489,332.933464 111.485323,331.641879 C113.246575,324.009785 115.007828,316.377691 116.76908,308.62818 C117.121331,307.219178 117.590998,306.632094 119.117417,306.279843 C124.753425,305.340509 130.389432,304.518591 135.908023,303.344423 C136.729941,303.109589 137.082192,302.757339 137.199609,302.052838 C137.669276,299.587084 138.373777,297.003914 138.843444,294.53816 C139.313112,292.189824 139.782779,289.72407 140.252446,287.258317 C133.794521,288.549902 127.454012,289.72407 121.113503,290.898239 C121.113503,290.663405 120.996086,290.545988 120.996086,290.428571 C122.757339,282.913894 124.401174,275.399217 126.162427,267.88454 C126.279843,267.180039 126.749511,266.827789 127.571429,266.592955 C134.733855,264.949119 141.778865,263.187867 148.941292,261.544031 C149.645793,261.426614 149.998043,261.191781 150.11546,260.369863 C151.172211,255.203523 152.228963,250.154599 153.403131,245.105675 C153.050881,244.870841 152.69863,245.105675 152.228963,245.223092 C149.058708,246.04501 146.005871,246.749511 142.835616,247.571429 C134.381605,249.684932 125.810176,251.915851 117.356164,254.029354 C116.534247,254.264188 115.947162,254.499022 115.712329,255.438356 C112.424658,269.058708 109.136986,282.679061 105.849315,296.299413 C101.270059,315.203523 96.6908023,333.990215 92.111546,352.894325 C91.7592955,354.303327 91.2896282,355.712329 91.2896282,357.356164 C96.925636,356.76908 102.444227,356.064579 107.962818,355.477495 C120.996086,353.951076 134.029354,352.424658 147.062622,351.015656 C147.88454,350.898239 148.236791,350.663405 148.354207,349.841487 C150.11546,341.857143 151.994129,333.990215 153.755382,326.005871 C155.868885,316.612524 158.099804,307.219178 160.213307,297.825832 C160.330724,297.238748 160.448141,296.76908 161.270059,296.651663 C164.205479,296.181996 167.023483,295.477495 169.958904,295.125245 C180.056751,293.716243 188.27593,289.136986 194.381605,281.035225 C200.369863,273.168297 201.778865,263.774951 201.661448,254.146771 C201.661448,252.620352 201.309198,251.093933 201.191781,249.450098 C207.297456,248.158513 213.168297,246.39726 219.391389,245.223092 C213.520548,278.452055 207.649706,311.446184 201.778865,344.55773 C208.001957,344.088063 213.990215,343.500978 219.978474,343.031311 C220.09589,342.091977 220.213307,341.152642 220.330724,340.330724 C221.857143,331.524462 223.266145,322.835616 224.792564,314.029354 C226.084149,306.04501 227.375734,298.178082 228.667319,290.193738 C230.311155,280.213307 232.072407,270.11546 233.716243,260.135029 C234.655577,254.264188 235.594912,248.27593 236.651663,242.405088 C236.76908,241.58317 237.003914,241.113503 238.060665,240.761252 C241.935421,239.704501 245.810176,239 249.684932,238.060665 C251.328767,237.708415 252.972603,237.238748 254.733855,236.886497 C257.199609,270.46771 259.665362,303.931507 262.248532,337.51272 C264.714286,337.277886 266.945205,337.16047 269.176125,336.925636 C276.573386,336.338552 283.970646,335.634051 291.367906,335.046967 C292.189824,334.92955 292.424658,334.694716 292.776908,333.990215 C295.829746,325.183953 299,316.495108 302.052838,307.688845 C306.984344,293.951076 311.798434,280.330724 316.729941,266.592955 C324.009785,246.279843 331.172211,226.084149 338.334638,205.771037 C339.74364,201.778865 341.035225,198.25636 342.209393,194.733855 L342.209393,194.733855 L342.209393,194.733855 Z M101.622309,266.240705 C101.504892,266.123288 101.504892,266.123288 101.387476,266.005871 C101.739726,264.362035 101.622309,262.7182 101.504892,261.074364 C101.152642,258.373777 99.861057,257.434442 97.2778865,258.138943 C95.5166341,258.608611 93.8727984,259.078278 92.111546,259.430528 C91.2896282,259.665362 90.8199609,260.017613 90.702544,260.83953 C89.9980431,264.362035 89.1761252,267.767123 88.3542074,271.172211 C87.4148728,275.164384 86.592955,279.039139 85.6536204,283.266145 C89.6457926,282.561644 93.5205479,281.857143 97.3953033,281.152642 C98.0998043,281.035225 98.0998043,280.565558 98.334638,280.09589 C99.039139,278.569472 99.74364,277.043053 100.330724,275.399217 C100.565558,274.92955 100.682975,274.577299 101.270059,274.459883 C102.796477,274.225049 104.322896,273.872798 105.966732,273.520548 L105.966732,279.391389 C107.258317,279.273973 108.432485,279.156556 109.72407,278.686888 C109.958904,270.819961 110.076321,262.953033 110.311155,254.968689 C109.489237,255.203523 109.019569,255.320939 108.432485,255.438356 C106.906067,255.555773 106.201566,256.377691 105.731898,257.786693 C104.322896,260.604697 102.913894,263.422701 101.622309,266.240705 L101.622309,266.240705 L101.622309,266.240705 Z M17.0821918,391.289628 C13.9119374,391.407045 10.8590998,391.641879 7.6888454,391.759295 L5.34050881,391.759295 C1.46575342,391.407045 -0.295499022,389.293542 0.29158513,385.418787 C1.34833659,378.726027 2.52250489,372.033268 3.69667319,365.340509 C6.04500978,351.250489 8.51076321,337.16047 10.8590998,323.07045 C12.9726027,310.389432 15.2035225,297.708415 17.3170254,285.027397 C18.2563601,279.626223 18.9608611,274.225049 19.9001957,268.823875 C22.8356164,251.681018 25.888454,234.655577 28.8238748,217.630137 C31.5244618,201.778865 34.5772994,185.927593 36.8082192,169.958904 C37.630137,164.088063 40.4481409,159.861057 45.9667319,157.395303 C60.409002,150.819961 74.6164384,143.892368 88.9412916,136.847358 C101.622309,130.624266 114.303327,124.401174 126.984344,118.295499 C147.649706,108.315068 168.432485,98.5694716 189.097847,88.7064579 C205.536204,80.8395303 222.091977,72.7377691 238.530333,64.7534247 C261.074364,53.8336595 283.500978,42.9138943 306.04501,32.111546 C327.297456,21.778865 348.667319,11.5636008 369.919765,1.23091977 C376.02544,-1.70450098 382.483366,1.70058708 383.305284,8.51076321 C384.362035,16.3776908 384.362035,24.3620352 384.949119,32.3463796 C385.771037,42.3268102 386.240705,52.3072407 386.827789,62.2876712 C387.53229,73.3248532 388.236791,84.4794521 388.941292,95.5166341 L391.054795,129.684932 C391.759295,140.722114 392.463796,151.876712 393.168297,162.913894 C393.872798,174.18591 394.577299,185.340509 395.2818,196.612524 C395.986301,207.649706 396.690802,218.804305 397.395303,229.841487 C398.099804,240.878669 398.804305,251.915851 399.508806,262.953033 C400.213307,274.107632 400.917808,285.379648 401.622309,296.534247 C402.32681,307.806262 403.031311,318.960861 403.735812,330.232877 C404.322896,339.74364 405.027397,349.37182 405.497065,358.882583 C405.731898,364.048924 402.091977,367.806262 396.925636,368.158513 C380.83953,369.097847 364.753425,370.154599 348.667319,371.093933 C337.043053,371.798434 325.30137,372.502935 313.677104,373.207436 C302.405088,373.911937 291.250489,374.616438 279.978474,375.203523 C268.941292,375.908023 258.021526,376.612524 246.984344,377.199609 C235.477495,377.90411 223.853229,378.608611 212.34638,379.313112 C200.48728,380.017613 188.510763,380.722114 176.651663,381.426614 C165.379648,382.131115 154.107632,382.835616 142.835616,383.540117 C130.976517,384.244618 119.117417,384.949119 107.1409,385.771037 C95.8688845,386.475538 84.4794521,387.180039 73.2074364,387.88454 C61.5831703,388.589041 49.9589041,389.293542 38.334638,389.998043 C31.0547945,390.46771 24.1272016,390.819961 17.0821918,391.289628 Z M164.205479,281.622309 C165.144814,277.277886 166.084149,273.285714 166.906067,269.293542 C168.080235,264.244618 169.136986,259.195695 170.311155,254.029354 C170.545988,252.972603 170.898239,252.385519 172.189824,252.268102 C174.18591,252.033268 176.181996,251.21135 178.295499,251.093933 C181.935421,250.8591 183.81409,252.268102 184.283757,255.908023 C185.223092,262.835616 183.696673,269.176125 179.821918,274.92955 C177.943249,277.747554 175.360078,279.508806 171.95499,280.09589 C169.37182,280.330724 167.023483,281.035225 164.205479,281.622309 Z M232.894325,171.95499 C238.530333,158.569472 243.931507,145.536204 249.450098,132.385519 C249.919765,133.207436 249.802348,133.911937 249.919765,134.616438 C250.389432,144.596869 250.8591,154.577299 251.328767,164.55773 C251.328767,165.614481 251.093933,165.966732 250.037182,166.318982 C244.401174,168.197652 238.882583,170.076321 232.894325,171.95499 Z M122.287671,199.195695 C122.757339,196.964775 123.227006,195.086106 123.696673,193.09002 C125.223092,186.866928 126.866928,180.643836 128.393346,174.420744 C128.62818,173.598826 128.980431,173.011742 129.802348,172.776908 C131.21135,172.424658 132.620352,171.720157 134.029354,171.367906 C137.082192,170.545988 138.373777,171.60274 138.373777,174.772994 C138.25636,178.882583 136.847358,182.757339 135.203523,186.514677 C133.794521,189.684932 132.268102,192.855186 129.802348,195.555773 C127.806262,197.669276 125.105675,198.138943 122.287671,199.195695 Z M96.1037182,193.207436 C95.8688845,201.661448 94.1076321,209.763209 91.407045,217.747554 C89.2935421,224.088063 86.8277886,230.311155 83.4227006,236.181996 C82.2485323,238.178082 80.8395303,240.056751 79.0782779,241.700587 C78.3737769,242.405088 77.6692759,242.874755 76.8473581,243.344423 C73.3248532,245.223092 70.741683,243.931507 70.5068493,239.821918 C70.2720157,236.299413 70.6242661,232.776908 71.2113503,229.37182 C72.9726027,217.630137 76.964775,206.475538 82.3659491,195.908023 C83.7749511,192.972603 85.6536204,190.272016 88.1193738,188.158513 C89.0587084,187.336595 90.1154599,186.632094 91.407045,186.279843 C93.7553816,185.457926 95.1643836,186.279843 95.8688845,188.62818 C95.9863014,189.097847 96.1037182,189.567515 96.1037182,190.037182 C96.221135,191.093933 96.1037182,192.150685 96.1037182,193.207436 Z M89.8806262,278.334638 C90.5851272,275.164384 91.2896282,272.111546 91.9941292,269.058708 C92.3463796,267.414873 92.816047,265.771037 93.1682975,264.127202 C93.4031311,262.953033 94.3424658,262.365949 95.7514677,262.600783 C96.925636,262.7182 97.2778865,263.540117 97.3953033,264.596869 C97.5127202,266.592955 97.2778865,268.471624 96.8082192,270.350294 C96.3385519,272.34638 95.5166341,274.225049 94.4598826,276.103718 C93.5205479,277.51272 92.111546,278.452055 89.8806262,278.334638 Z M102.32681,270.46771 C103.500978,267.649706 104.675147,265.066536 105.731898,262.483366 C105.849315,262.483366 105.849315,262.483366 105.966732,262.600783 L105.966732,268.589041 C105.966732,269.645793 105.614481,269.998043 104.55773,270.11546 C103.853229,270.11546 103.148728,270.232877 102.32681,270.46771 Z" id="Combined-Shape"></path>
        </g>
    </g>
</svg>