<svg xmlns="http://www.w3.org/2000/svg" viewBox="0 0 500 122.16"><defs><style>.cls-1{fill:#fff;}</style></defs><title>MG1 WHITEAsset 1</title><g id="Layer_2" data-name="Layer 2"><g id="MG1"><path class="cls-1" d="M473.43.67h-28.7a2.27,2.27,0,0,1,.85,2V120.14a2,2,0,0,1-.87,1.87h28.71A26.57,26.57,0,0,0,500,95.44V27.23A26.57,26.57,0,0,0,473.43.67Z"/><path class="cls-1" d="M291.93,48.88l-45.56.05a3,3,0,0,0-3,3l0,18.26a3,3,0,0,0,3,3l30.33,0a3,3,0,0,1,3,3v9.19a12.27,12.27,0,0,1-3.2,8.39,11.88,11.88,0,0,1-8.75,3.81H207.24A12.22,12.22,0,0,1,195,85.46V36.7A12.21,12.21,0,0,1,207.24,24.5H295a3,3,0,0,0,3-3V3.2a3,3,0,0,0-3-3H207.24A36.55,36.55,0,0,0,170.69,36.7V85.46A36.59,36.59,0,0,0,207.24,122h60.58a36.06,36.06,0,0,0,25.71-10.68,36.92,36.92,0,0,0,10.58-26.09V61.05A12.17,12.17,0,0,0,291.93,48.88Z"/><path class="cls-1" d="M398,18,433.38,1.34A7.21,7.21,0,0,1,435,.67H319.26l-1.15,0-.54,0-.48,0A26.44,26.44,0,0,0,310.91,2l-.17.06-.71.25a24.2,24.2,0,0,0-4.39,2.11,26.62,26.62,0,0,0-4.14,3.13V21.45A6.52,6.52,0,0,1,295,28H292.7V45.45a15.65,15.65,0,0,1,14.89,15.6V85.24a40.83,40.83,0,0,1-9.49,26.2A26.5,26.5,0,0,0,319.26,122H422.37a2.27,2.27,0,0,1-.85-2V28.67L397.79,39.33a1.87,1.87,0,0,1-.86.17c-.69,0-1.2-.52-1.2-1.72V21.28A3.44,3.44,0,0,1,398,18Z"/><path class="cls-1" d="M116.4,8.09,80.53,48.26a1.78,1.78,0,0,1-2.65,0L42,8.09C27.3-8.4,0,2,0,24.11v95a3,3,0,0,0,3,3H21.19a3,3,0,0,0,3-3q0-45,0-90a1.74,1.74,0,0,1,3-1.16L70.45,76.33a11.73,11.73,0,0,0,17.5,0L131.13,28a1.74,1.74,0,0,1,3,1.16q0,45,0,90a3,3,0,0,0,3,3h18.15a3,3,0,0,0,3-3v-95C158.41,2,131.12-8.4,116.4,8.09Z"/></g></g></svg>